# xmcd
#
# Track frame offsets:
#	150
#	8712
#	30727
#	42431
#	51040
#	57984
#	70263
#	76987
#	86554
#	96069
#	112276
#	117005
#	127523
#	132296
#	143389
#	148584
#	161411
#	169937
#	178793
#	192718
#
# Disc length: 2757 seconds
# Revision: 0
# Processed by: cddbd v1.5.2PL0 Copyright (c) Steve Scherf et al.
# Submitted via: dBpowerAMP V12.0
#
DISCID=100ac314
DTITLE=Dave Prior - Gag 1
DYEAR=2011
DGENRE=Country
TTITLE0=Gag 1
TTITLE1=Have I Missed Anyone
TTITLE2=Gag 2
TTITLE3=Call Me Mr Gillard
TTITLE4=Gag 3
TTITLE5=Loaded Questions
TTITLE6=Gag 4
TTITLE7=A Mans Best Friend
TTITLE8=Gag 5
TTITLE9=The Drinking Party Of Australia
TTITLE10=Gag 6
TTITLE11=Dreamtime Nursary Rhyme
TTITLE12=Gag 7
TTITLE13=Don't Let The Buggers In
TTITLE14=Gag 8
TTITLE15=Santa Claus Is Now On Facebook
TTITLE16=Gag 9
TTITLE17=The Atheist
TTITLE18=Gag 10
TTITLE19=Pension Day
EXTD=
EXTT0=
EXTT1=
EXTT2=
EXTT3=
EXTT4=
EXTT5=
EXTT6=
EXTT7=
EXTT8=
EXTT9=
EXTT10=
EXTT11=
EXTT12=
EXTT13=
EXTT14=
EXTT15=
EXTT16=
EXTT17=
EXTT18=
EXTT19=
PLAYORDER=
